<?xml version="1.0" encoding="utf-8"?>
<!-- Generator: Adobe Illustrator 22.0.0, SVG Export Plug-In . SVG Version: 6.00 Build 0)  -->
<svg version="1.1" id="Capa_1" xmlns="http://www.w3.org/2000/svg" xmlns:xlink="http://www.w3.org/1999/xlink" x="0px" y="0px"
	 viewBox="0 0 991.328 151.478" enable-background="new 0 0 991.328 151.478" xml:space="preserve">
<g>
	<path fill="#9F2241" d="M223.231,83.089c0.708,1.065,1.688,1.548,3.067,1.581c1.875,0.047,3.073-1.773,3.073-1.773l31.114-39.524
		c2.566-2.652,5.097-0.513,5.097-0.513c2.464,2.548,0.624,4.884,0.624,4.884l-6.949,8.817v0.054c-0.6,0.603-0.975,1.442-0.975,2.36
		c0,0.838,0.314,1.604,0.823,2.196v0.022l7.005,8.79l22.042-27.807l-8.806-11.13l-1.63-2.099c-1.434-2.042-4.621-2.519-4.621-2.519
		h-13.202c-3.508,0-5.413,2.404-5.413,2.404L217.505,75.88L223.231,83.089z"/>
	<path fill="#9F2241" d="M221.668,58.971l-8.849-11.245c-1.805-2.877,0.818-4.933,0.818-4.933c3.304-1.916,5.227,1.038,5.227,1.038
		l7.31,9.312l8.671-11.058l-9.989-12.746c-2.387-3.383-6.02-2.911-6.02-2.911h-11.93c-3.817,0-5.457,2.354-5.457,2.354
		l-10.55,13.278l22.051,27.923L221.668,58.971z"/>
	<path fill="#9F2241" d="M255.757,68.557c0,0-1.02-1.56-2.979-1.527c-2.041,0.021-2.869,1.369-2.869,1.369l-31.425,40.024
		c-2.55,2.768-5.285,0.546-5.285,0.546c-2.46-2.556-0.447-4.915-0.447-4.915l7.048-8.975l0.005-0.05
		c0.599-0.612,0.963-1.438,0.963-2.352c0-0.845-0.31-1.611-0.818-2.204v-0.02l-7-8.791l-22.123,28.12l12.329,15.476l19.392,0.055
		l38.986-49.438L255.757,68.557z"/>
	<path fill="#9F2241" d="M257.382,92.676l8.921,11.383c2.054,2.82-0.543,4.909-0.543,4.909c-3.42,2.285-5.519-1.129-5.519-1.129
		l-7.463-9.405l-8.666,11.064l12.499,15.862l19.235-0.052l12.337-15.677l-22.1-27.991L257.382,92.676z"/>
	<path fill="#9F2241" d="M288.012,80.632c-2.593,0-4.7-2.104-4.7-4.701c0-2.599,2.108-4.706,4.7-4.706
		c2.598,0,4.71,2.107,4.71,4.706C292.722,78.528,290.61,80.632,288.012,80.632 M288.012,67.179c-4.925,0-8.936,3.924-8.936,8.752
		c0,4.825,4.012,8.754,8.936,8.754c4.936,0,8.955-3.929,8.955-8.754C296.967,71.103,292.948,67.179,288.012,67.179"/>
	<path fill="#9F2241" d="M239.472,12.987c2.595,0,4.708,2.106,4.708,4.703c0,2.598-2.113,4.715-4.708,4.715
		c-2.588,0-4.702-2.117-4.702-4.715C234.77,15.093,236.884,12.987,239.472,12.987 M239.472,26.449c4.939,0,8.947-3.927,8.947-8.759
		c0-4.816-4.009-8.752-8.947-8.752c-4.933,0-8.946,3.936-8.946,8.752C230.526,22.522,234.54,26.449,239.472,26.449"/>
	<path fill="#9F2241" d="M186.102,75.897c0-2.594,2.108-4.708,4.701-4.708c2.597,0,4.705,2.114,4.705,4.708
		c0,2.597-2.108,4.707-4.705,4.707C188.21,80.604,186.102,78.495,186.102,75.897 M199.747,75.897c0-4.833-4.011-8.758-8.943-8.758
		c-4.931,0-8.952,3.925-8.952,8.758c0,4.828,4.021,8.754,8.952,8.754C195.736,84.651,199.747,80.725,199.747,75.897"/>
	<path fill="#9F2241" d="M239.489,138.82c-2.6,0-4.707-2.108-4.707-4.702c0-2.602,2.107-4.714,4.707-4.714
		c2.588,0,4.706,2.112,4.706,4.714C244.195,136.712,242.077,138.82,239.489,138.82 M239.489,125.361
		c-4.935,0-8.953,3.925-8.953,8.758c0,4.817,4.018,8.748,8.953,8.748c4.927,0,8.947-3.931,8.947-8.748
		C248.436,129.286,244.415,125.361,239.489,125.361"/>
	<path fill="#BC955C" d="M146.108,17.64H43.343v67.947c0,37.285,51.363,48.532,51.363,48.532h0.038c0,0,51.363-11.248,51.363-48.532
		V17.64z M143.613,20.117v65.47c0,7.931-2.525,15.253-7.482,21.766c-4.042,5.305-9.714,10.114-16.863,14.282
		c-10.944,6.389-22.056,9.329-24.542,9.94c-2.482-0.606-13.501-3.518-24.432-9.884c-7.173-4.167-12.869-8.974-16.928-14.286
		c-4.993-6.532-7.519-13.869-7.519-21.818v-65.47H143.613z"/>
	<path fill="#BC955C" d="M107.175,39.386V33.15H100.7v5.825h-2.527V33.15h-6.669v5.825h-2.53V33.15h-6.575v6.24l3.214,5.473
		c0.104,0.192,0.163,0.409,0.163,0.632l0.024,28.575h3.118l-0.036-10.263c0-2.428,2.78-4.62,5.834-4.62
		c3.048,0,5.823,2.192,5.823,4.616l0.029,10.267h3.197l-0.014-10.838c-0.005-0.045-0.012-0.102-0.012-0.148v-5.377
		c0-0.023,0.007-0.049,0.007-0.076v-3.912c-0.007-0.004-0.007-0.018-0.007-0.021V51.99v-6.495c0-0.223,0.058-0.444,0.178-0.636
		L107.175,39.386z"/>
	<path fill="#BC955C" d="M83.28,74.73l-0.01-9.467l-1.152,0.69c-0.422,0.247-0.957,0.237-1.363-0.045l-1.39-0.943
		c0.004,0.049,0.004,0.086,0.004,0.125l-0.051,3.651c0,0.382-0.182,0.732-0.48,0.965c0.145,0.049,0.281,0.116,0.401,0.217
		c1.683,1.337,1.807,3.251,1.447,4.808H83.28z"/>
	<path fill="#BC955C" d="M94.716,61.693c-1.945,0-3.303,1.366-3.303,2.11l0.029,10.261h6.601l-0.029-10.261
		C98.014,63.06,96.653,61.693,94.716,61.693"/>
	<path fill="#BC955C" d="M56.191,74.73c-0.36-0.785-0.629-1.746-0.812-2.874c-0.312-1.983-0.252-3.799-0.248-3.877
		c0.02-0.525,0.375-0.995,0.889-1.152l2.76-0.845l-3.121-2.185c-0.333-0.237-0.528-0.616-0.528-1.023v-3.473
		c0-0.468,0.262-0.896,0.675-1.118l1.217-0.623v-1.182l-1.109-0.446c-0.471-0.189-0.783-0.652-0.787-1.162v-4.169
		c0-0.691,0.554-1.255,1.248-1.261l3.903-0.032c-0.072-1.022-0.096-2.42,0.159-3.584c0.341-1.563,1.239-3.263,1.671-4.022
		l-0.211-1.446c-0.052-0.363,0.053-0.728,0.293-0.999c0.24-0.274,0.59-0.429,0.96-0.429h2.103c0.235,0,0.475,0.063,0.677,0.194
		l5.135,3.23h2.365c0.343,0,0.682,0.139,0.912,0.387c0.24,0.245,0.367,0.577,0.345,0.922l-0.173,4.011
		c-0.014,0.341-0.167,0.652-0.403,0.87l1.565,0.006c0.341,0.005,0.663,0.145,0.908,0.386l0.715,0.738l0.543-0.415l0.912-1.903
		c0.212-0.442,0.653-0.71,1.147-0.71h3.354v-0.719l-3.211-5.471c-0.113-0.186-0.173-0.405-0.173-0.626v-7.832
		c0-0.693,0.569-1.259,1.265-1.259h7.84h2.525h6.674h2.527h7.742c0.691,0,1.26,0.565,1.26,1.259v7.832
		c0,0.227-0.06,0.444-0.18,0.637l-3.255,5.471v0.708h3.332c0.485,0,0.926,0.268,1.138,0.71l0.915,1.903l0.545,0.415l0.711-0.738
		c0.238-0.241,0.571-0.38,0.907-0.386l1.575-0.006c-0.245-0.218-0.393-0.529-0.411-0.87l-0.18-4.011
		c-0.019-0.345,0.115-0.677,0.35-0.922c0.24-0.248,0.564-0.387,0.917-0.387h2.36l5.14-3.23c0.204-0.13,0.442-0.194,0.672-0.194
		h2.107c0.365,0,0.716,0.155,0.961,0.429c0.235,0.271,0.343,0.636,0.293,0.999l-0.212,1.446c0.435,0.759,1.335,2.459,1.671,4.022
		c0.25,1.164,0.226,2.562,0.159,3.584l3.898,0.032c0.692,0.006,1.253,0.57,1.253,1.261l-0.012,4.169c0,0.509-0.307,0.973-0.78,1.162
		l-1.109,0.446v1.182l1.212,0.623c0.42,0.221,0.677,0.65,0.677,1.118v3.473c0,0.407-0.192,0.786-0.525,1.023l-3.126,2.185
		l2.77,0.845c0.509,0.158,0.864,0.628,0.881,1.152c0.01,0.078,0.072,1.895-0.242,3.877c-0.183,1.128-0.451,2.089-0.809,2.874h4.592
		c0.024,0,0.044,0.004,0.058,0.01V26.315h-86.34V74.73H56.191z"/>
	<path fill="#BC955C" d="M110.252,69.922c0.124-0.102,0.259-0.168,0.398-0.217c-0.298-0.232-0.478-0.583-0.485-0.965l-0.046-3.655
		c0-0.035,0-0.072,0.005-0.121l-1.39,0.943c-0.403,0.276-0.936,0.292-1.358,0.045l-1.095-0.658l0.009,9.435h2.506
		C108.449,73.174,108.574,71.26,110.252,69.922"/>
	<path fill="#BC955C" d="M127.036,100.634c-0.696,0-1.267-0.564-1.267-1.265v-8.188c0-0.609-0.365-1.359-0.939-1.918
		c-0.482-0.468-1.313-1.028-2.594-1.004c-1.944,0.033-3.107,1.522-3.265,2.989v8.122c0,0.337-0.13,0.658-0.363,0.887
		c-0.242,0.239-0.562,0.379-0.9,0.379h-7.511c-0.699,0-1.265-0.564-1.265-1.265v-8.188c0-0.609-0.375-1.359-0.941-1.918
		c-0.48-0.468-1.32-1.028-2.597-1.004c-0.845,0.016-1.607,0.317-2.194,0.861l6.177,31.228c8.692-3.819,18.98-10.05,24.538-19.713
		H127.036z"/>
	<path fill="#BC955C" d="M106.954,121.127l-8.688-43.889h-7.038l-8.673,43.908c-0.015,0.061-0.024,0.114-0.05,0.172
		c6.025,2.451,10.919,3.704,12.283,4.125c1.38-0.43,6.246-1.674,12.233-4.094C106.99,121.28,106.968,121.203,106.954,121.127"/>
	<path fill="#BC955C" d="M86.312,89.082c-0.578-0.516-1.322-0.808-2.148-0.814h-0.07c-1.236,0-2.052,0.541-2.523,0.999
		c-0.571,0.563-0.946,1.311-0.946,1.918v8.19c0,0.695-0.564,1.259-1.267,1.259h-7.509c-0.335,0-0.66-0.13-0.89-0.367
		c-0.238-0.241-0.374-0.562-0.374-0.893v-8.119c-0.161-1.473-1.318-2.964-3.257-2.988h-0.07c-1.236,0-2.057,0.541-2.532,0.999
		c-0.572,0.563-0.937,1.311-0.937,1.918v8.19c0,0.695-0.571,1.259-1.262,1.259h-6.856c5.548,9.64,15.8,15.867,24.475,19.686
		L86.312,89.082z"/>
	<path fill="#BC955C" d="M137.9,77.244h-37.056l1.817,9.2c0.816-0.435,1.735-0.674,2.688-0.692c1.671-0.029,3.245,0.593,4.408,1.73
		c1.065,1.031,1.699,2.418,1.699,3.704v6.939h4.991v-6.939c0-0.039,0-0.077,0-0.116c0.281-2.985,2.749-5.271,5.744-5.318
		c1.686-0.029,3.243,0.593,4.408,1.73c1.065,1.031,1.699,2.418,1.699,3.704v6.939h6.904c1.73-3.762,2.75-7.994,2.75-12.751v-8.139
		C137.939,77.238,137.919,77.244,137.9,77.244"/>
	<path fill="#BC955C" d="M61.253,98.124v-6.939c0-1.282,0.643-2.667,1.705-3.704c1.162-1.137,2.736-1.74,4.402-1.727
		c3,0.049,5.473,2.335,5.747,5.324c0.009,0.039,0.009,0.073,0.009,0.106v6.939H78.1v-6.939c0-1.282,0.633-2.667,1.699-3.704
		c1.162-1.137,2.741-1.74,4.407-1.727c0.932,0.015,1.829,0.253,2.631,0.656l1.813-9.167H51.613v8.126
		c0,4.765,1.032,8.999,2.76,12.755H61.253z"/>
	<path fill="#BC955C" d="M64.232,72.15h2.05c0.151,0.256,0.245,0.544,0.283,0.844c0.007,0.168,0.015,0.338,0.031,0.501
		c0,0.45-0.079,0.885-0.168,1.235h-7.18c-1.035-0.699-1.553-3.48-1.599-5.766l3.143-0.971c0.528-0.164,0.888-0.646,0.888-1.196
		v-1.206c0-0.406-0.199-0.79-0.528-1.022l-3.493-2.447v-2.06l1.22-0.629c0.41-0.217,0.674-0.643,0.674-1.115v-2.787
		c0-0.507-0.312-0.965-0.785-1.157l-1.111-0.443v-2.089l3.308-0.032l1.575,2.559l0.015,3.568l-1.083,3.381
		c-0.12,0.379-0.053,0.8,0.185,1.124c0.23,0.318,0.617,0.516,1.017,0.516h0.961c0.614,0,1.147-0.458,1.248-1.061
		c0.091-0.555,0.391-2.155,0.672-2.876c0.218-0.553,1.124-1.759,1.687-2.429c0.397-0.478,0.389-1.167-0.017-1.635l-4.35-4.944
		c-0.082-0.738-0.235-2.507,0.033-3.758c0.296-1.358,1.244-3.089,1.587-3.639c0.151-0.25,0.213-0.543,0.168-0.833l-0.06-0.452h0.283
		l5.133,3.232c0.206,0.129,0.441,0.199,0.679,0.199h1.409l-0.081,1.87l-1.656,0.597c-0.504,0.177-0.84,0.656-0.83,1.182l0.004,1.288
		c0,0.685,0.571,1.243,1.253,1.243l4.337,0.015l1.125,1.159c0.446,0.466,1.167,0.521,1.676,0.13c0,0,1.968-1.549,2.06-1.734
		l0.701-1.469h2.521v2.946v1.621c0,0-4.614,1.562-4.989,1.754c-0.312,0.147-0.47,1.564-0.422,1.898
		c0.053,0.347,0.034,0.477,0.528,0.844c0,0,1.347,1.052,1.757,1.194l1.349-1.267l1.771,0.116l-0.005,4.228l-1.697,1.01l-5.303-3.6
		c-0.552-0.376-1.296-0.259-1.709,0.262l-0.826,1.051c-0.403,0.511-0.346,1.249,0.125,1.684l3.034,2.821L76.809,67.9l-3.046,1.337
		c-0.449,0.202-0.756,0.656-0.756,1.154v0.504c0,0.695,0.571,1.255,1.265,1.255h3.666c0.629,0.781,0.387,1.881,0.12,2.58h-8.436
		c-0.285-0.294-0.437-0.817-0.499-1.409C69.115,73.162,69.11,73,69.093,72.83c-0.019-0.791,0.081-1.613,0.192-2.089l1.963-2.487
		c0.158-0.202,0.254-0.455,0.264-0.715l0.055-1.197c0.022-0.417-0.177-0.838-0.53-1.08c-0.355-0.246-0.812-0.302-1.207-0.14
		l-3.166,1.29c-0.413,0.162-0.709,0.532-0.778,0.971l-0.183,1.257l-1.838,0.549c-0.541,0.157-0.903,0.644-0.903,1.201v0.504
		C62.962,71.59,63.529,72.15,64.232,72.15"/>
	<path fill="#BC955C" d="M125.264,72.15h-2.05c-0.154,0.256-0.242,0.544-0.291,0.844c-0.007,0.168-0.012,0.338-0.031,0.501
		c0.005,0.45,0.084,0.885,0.172,1.235h7.18c1.032-0.699,1.548-3.48,1.599-5.766l-3.147-0.971c-0.528-0.164-0.888-0.646-0.888-1.196
		v-1.206c0-0.406,0.202-0.79,0.538-1.022l3.485-2.447v-2.06l-1.222-0.629c-0.416-0.217-0.674-0.643-0.674-1.115v-2.787
		c0-0.507,0.309-0.965,0.792-1.157l1.104-0.443l0.007-2.089l-3.317-0.032l-1.568,2.559l-0.009,3.568l1.078,3.381
		c0.118,0.379,0.053,0.8-0.185,1.124c-0.24,0.318-0.62,0.516-1.022,0.516h-0.954c-0.621,0-1.144-0.458-1.25-1.061
		c-0.091-0.555-0.391-2.155-0.672-2.876c-0.214-0.553-1.124-1.759-1.685-2.429c-0.403-0.478-0.396-1.167,0.01-1.635l4.35-4.944
		c0.086-0.738,0.24-2.507-0.034-3.758c-0.293-1.358-1.243-3.089-1.579-3.639c-0.153-0.25-0.221-0.543-0.178-0.833l0.065-0.452
		h-0.276l-5.144,3.232c-0.199,0.129-0.43,0.199-0.672,0.199h-1.414l0.087,1.87l1.661,0.597c0.495,0.177,0.831,0.656,0.831,1.182
		l-0.015,1.288c0,0.685-0.566,1.243-1.26,1.243l-4.325,0.015l-1.136,1.159c-0.437,0.466-1.157,0.521-1.666,0.13
		c0,0-1.968-1.549-2.064-1.734l-0.701-1.469h-2.516v2.946v1.621c0,0,4.609,1.562,4.988,1.754c0.308,0.147,0.468,1.564,0.418,1.898
		c-0.058,0.347-0.031,0.477-0.533,0.844c0,0-1.342,1.052-1.752,1.194l-1.339-1.267l-1.776,0.116v4.228l1.692,1.01l5.308-3.6
		c0.552-0.376,1.301-0.259,1.707,0.262l0.833,1.051c0.401,0.511,0.346,1.249-0.134,1.684l-3.032,2.821l0.031,2.294l3.042,1.337
		c0.454,0.202,0.751,0.656,0.751,1.154v0.504c0,0.695-0.566,1.255-1.265,1.255h-3.656c-0.636,0.781-0.386,1.881-0.12,2.58h8.436
		c0.288-0.294,0.437-0.817,0.494-1.409c0.005-0.159,0.017-0.321,0.031-0.491c0.021-0.791-0.079-1.613-0.194-2.089l-1.959-2.487
		c-0.158-0.202-0.254-0.455-0.264-0.715l-0.063-1.197c-0.019-0.417,0.183-0.838,0.533-1.08c0.36-0.246,0.811-0.302,1.208-0.14
		l3.166,1.29c0.417,0.162,0.71,0.532,0.775,0.971l0.187,1.257l1.841,0.549c0.531,0.157,0.9,0.644,0.9,1.201v0.504
		C126.529,71.59,125.97,72.15,125.264,72.15"/>
	<rect x="341.191" y="26.458" fill="#9F2241" width="1.476" height="98.893"/>
	<path fill="#9F2241" d="M447.028,55.884c-0.468,0-0.828,0.392-0.802,0.868c0.73,9.342-0.271,18.646-2.975,26.389
		c-0.983,2.884-2.198,5.604-3.593,8.073c-1.404,2.445-3.021,4.659-4.789,6.589c-1.7,1.827-3.481,3.345-5.306,4.526
		c0,0-0.394,0.259-0.475,0.315c-2.063,1.269-4.261,2.228-6.532,2.85c-4.633,1.284-9.494,1.09-14.434-0.51
		c-1.292-0.414-2.614-0.958-3.958-1.606c-0.678-0.332-1.237,0.014-1.237,0.768v5.058c0,0.267,0.123,0.511,0.327,0.671
		c1.757,1.382,10.809,7.436,21.921,5.197c1.219-0.245,5.805-1.604,8.517-2.896c4.593-2.288,8.721-5.77,12.267-10.356
		c3.543-4.62,6.417-10.205,8.531-16.61c2.098-6.362,3.38-13.436,3.805-21.023c0.142-2.461,0.173-4.962,0.111-7.519
		c-0.015-0.429-0.377-0.784-0.815-0.784H447.028z"/>
	<path fill="#9F2241" d="M395.06,36.548c-3.462-0.918-7.015,1.133-7.94,4.592c-0.925,3.444,1.127,7.012,4.579,7.934
		c3.457,0.926,7.02-1.127,7.945-4.583C400.571,41.039,398.514,37.469,395.06,36.548"/>
	<path fill="#9F2241" d="M450.273,36.468c-3.449,0.925-5.51,4.479-4.587,7.937c0.927,3.458,4.491,5.506,7.945,4.583
		c3.452-0.927,5.507-4.488,4.58-7.939C457.292,37.595,453.727,35.539,450.273,36.468"/>
	<path fill="#9F2241" d="M418.81,91.82h-0.007c-1.938-0.316-3.813-0.9-5.577-1.752c-3.459-1.655-6.52-4.456-8.853-8.079
		c-2.328-3.604-3.971-8.006-4.906-13.09c-0.701-3.819-0.936-7.902-0.721-12.187c0.033-0.491-0.362-0.911-0.857-0.911h-10.127
		c-0.471,0-0.859,0.386-0.864,0.857c-0.058,6.984,0.836,13.672,2.583,19.396c1.824,6.006,4.633,11.219,8.109,15.084
		c3.097,3.431,6.685,5.861,10.691,7.252c0.59,0.207,1.195,0.389,1.809,0.549c2.321,0.613,4.753,0.88,7.219,0.813
		c1.248-0.034,2.614-0.19,4.045-0.465c0.396-0.075,0.687-0.435,0.687-0.845V92.89c0-0.476-0.37-0.859-0.845-0.87
		C420.356,92.015,419.559,91.938,418.81,91.82"/>
	<path fill="#9F2241" d="M547.634,67.274l2.267-2.695c1.573,1.288,3.227,2.102,5.227,2.102c1.574,0,2.532-0.617,2.532-1.631v-0.053
		c0-0.964-0.604-1.46-3.526-2.212c-3.533-0.888-5.802-1.854-5.802-5.304v-0.05c0-3.147,2.547-5.229,6.126-5.229
		c2.547,0,4.727,0.791,6.498,2.208l-2.002,2.879c-1.546-1.07-3.077-1.723-4.546-1.723c-1.474,0-2.252,0.675-2.252,1.515v0.059
		c0,1.138,0.749,1.51,3.781,2.274c3.545,0.923,5.545,2.185,5.545,5.21v0.049c0,3.453-2.648,5.381-6.432,5.381
		C552.406,70.056,549.732,69.14,547.634,67.274"/>
	<polygon fill="#9F2241" points="565.211,52.444 578.423,52.444 578.423,55.849 569.037,55.849 569.037,59.37 577.294,59.37 
		577.294,62.77 569.037,62.77 569.037,66.413 578.547,66.413 578.547,69.811 565.211,69.811 	"/>
	<path fill="#9F2241" d="M581.375,61.176v-0.044c0-4.941,3.749-8.976,9.127-8.976c3.303,0,5.283,1.086,6.898,2.676l-2.448,2.801
		c-1.344-1.213-2.729-1.963-4.476-1.963c-2.951,0-5.078,2.431-5.078,5.407v0.055c0,2.969,2.074,5.454,5.078,5.454
		c2.003,0,3.225-0.789,4.61-2.036l2.443,2.461c-1.8,1.908-3.803,3.096-7.178,3.096C585.202,70.106,581.375,66.161,581.375,61.176"/>
	<path fill="#9F2241" d="M608.465,60.879c1.874,0,2.951-0.988,2.951-2.455v-0.049c0-1.641-1.151-2.478-3.026-2.478h-3.83v4.981
		H608.465z M600.711,52.444h8.008c2.223,0,3.948,0.626,5.099,1.766c0.975,0.969,1.5,2.329,1.5,3.974v0.046
		c0,2.808-1.526,4.566-3.749,5.384l4.277,6.197h-4.499l-3.763-5.555h-0.044h-2.98v5.555h-3.849V52.444z"/>
	<polygon fill="#9F2241" points="619.207,52.444 632.418,52.444 632.418,55.849 623.042,55.849 623.042,59.37 631.292,59.37 
		631.292,62.77 623.042,62.77 623.042,66.413 632.544,66.413 632.544,69.811 619.207,69.811 	"/>
	<polygon fill="#9F2241" points="640.396,55.971 635.069,55.971 635.069,52.444 649.579,52.444 649.579,55.971 644.249,55.971 
		644.249,69.811 640.396,69.811 	"/>
	<path fill="#9F2241" d="M660.682,62.543l-2.318-5.628l-2.329,5.628H660.682z M656.63,52.325h3.553l7.504,17.486h-4.027l-1.6-3.892
		h-7.408l-1.601,3.892h-3.92L656.63,52.325z"/>
	<path fill="#9F2241" d="M678.306,60.879c1.876,0,2.953-0.988,2.953-2.455v-0.049c0-1.641-1.148-2.478-3.024-2.478h-3.829v4.981
		H678.306z M670.549,52.444h8.008c2.225,0,3.955,0.626,5.103,1.766c0.975,0.969,1.5,2.329,1.5,3.974v0.046
		c0,2.808-1.52,4.566-3.749,5.384l4.275,6.197h-4.503l-3.746-5.555h-0.052h-2.979v5.555h-3.857V52.444z"/>
	<path fill="#9F2241" d="M692.296,46.697l3.271,1.417l-3.203,2.974h-2.897L692.296,46.697z M689.15,52.444h3.843v17.367h-3.843
		V52.444z"/>
	<path fill="#9F2241" d="M707.444,62.543l-2.324-5.628l-2.321,5.628H707.444z M703.397,52.325h3.553l7.494,17.486h-4.021
		l-1.607-3.892h-7.398l-1.603,3.892h-3.928L703.397,52.325z"/>
	<path fill="#9F2241" d="M731.746,66.356c3.15,0,5.276-2.1,5.276-5.18v-0.044c0-3.074-2.126-5.239-5.276-5.239h-2.976v10.463
		H731.746z M724.915,52.444h6.831c5.503,0,9.305,3.747,9.305,8.637v0.051c0,4.88-3.802,8.679-9.305,8.679h-6.831V52.444z"/>
	<polygon fill="#9F2241" points="744.776,52.444 757.988,52.444 757.988,55.849 748.607,55.849 748.607,59.37 756.855,59.37 
		756.855,62.77 748.607,62.77 748.607,66.413 758.109,66.413 758.109,69.811 744.776,69.811 	"/>
	<path fill="#9F2241" d="M559.185,92.02l-2.328-5.629l-2.321,5.629H559.185z M555.133,81.803h3.553l7.499,17.482h-4.022l-1.604-3.89
		h-7.398l-1.603,3.89h-3.923L555.133,81.803z"/>
	<path fill="#9F2241" d="M575.885,95.834c3.151,0,5.281-2.103,5.281-5.18v-0.046c0-3.08-2.13-5.235-5.281-5.235h-2.975v10.461
		H575.885z M569.061,81.926h6.824c5.505,0,9.297,3.748,9.297,8.633v0.049c0,4.883-3.792,8.677-9.297,8.677h-6.824V81.926z"/>
	<polygon fill="#9F2241" points="588.915,81.926 593.07,81.926 597.665,89.267 602.274,81.926 606.431,81.926 606.431,99.285 
		602.6,99.285 602.6,87.955 597.665,95.362 597.57,95.362 592.697,88.031 592.697,99.285 588.915,99.285 	"/>
	<rect x="611.177" y="81.926" fill="#9F2241" width="3.853" height="17.359"/>
	<polygon fill="#9F2241" points="619.72,81.926 623.268,81.926 631.471,92.618 631.471,81.926 635.278,81.926 635.278,99.285 
		631.997,99.285 623.523,88.248 623.523,99.285 619.72,99.285 	"/>
	<rect x="640.014" y="81.926" fill="#9F2241" width="3.85" height="17.359"/>
	<path fill="#9F2241" d="M647.285,96.763l2.284-2.706c1.571,1.286,3.226,2.106,5.223,2.106c1.57,0,2.53-0.621,2.53-1.639v-0.045
		c0-0.969-0.604-1.464-3.529-2.214c-3.533-0.887-5.809-1.855-5.809-5.305v-0.053c0-3.149,2.552-5.229,6.131-5.229
		c2.55,0,4.727,0.793,6.508,2.208l-2.005,2.876c-1.545-1.065-3.077-1.716-4.551-1.716c-1.475,0-2.257,0.676-2.257,1.521v0.046
		c0,1.147,0.756,1.511,3.78,2.28c3.548,0.922,5.558,2.191,5.558,5.206v0.046c0,3.454-2.654,5.389-6.431,5.389
		C652.064,99.535,649.395,98.618,647.285,96.763"/>
	<polygon fill="#9F2241" points="668.762,85.453 663.438,85.453 663.438,81.926 677.937,81.926 677.937,85.453 672.615,85.453 
		672.615,99.285 668.762,99.285 	"/>
	<path fill="#9F2241" d="M688.674,90.359c1.875,0,2.95-0.99,2.95-2.457v-0.049c0-1.634-1.152-2.48-3.024-2.48h-3.831v4.986H688.674z
		 M680.92,81.926h7.998c2.231,0,3.959,0.616,5.102,1.766c0.984,0.969,1.508,2.323,1.508,3.964v0.052c0,2.804-1.522,4.568-3.75,5.377
		l4.275,6.2h-4.504l-3.756-5.554h-0.043h-2.981v5.554h-3.849V81.926z"/>
	<path fill="#9F2241" d="M709.828,92.02l-2.321-5.629l-2.328,5.629H709.828z M705.776,81.803h3.562l7.497,17.482h-4.033l-1.599-3.89
		h-7.398l-1.603,3.89h-3.923L705.776,81.803z"/>
	<path fill="#9F2241" d="M717.982,90.654v-0.046c0-4.934,3.754-8.978,9.122-8.978c3.308,0,5.286,1.09,6.908,2.679l-2.458,2.803
		c-1.344-1.219-2.727-1.964-4.47-1.964c-2.952,0-5.075,2.429-5.075,5.411v0.049c0,2.971,2.075,5.456,5.075,5.456
		c2.002,0,3.227-0.794,4.599-2.04l2.459,2.461c-1.805,1.907-3.808,3.098-7.183,3.098C721.808,99.582,717.982,95.642,717.982,90.654"
		/>
	<rect x="737.397" y="81.926" fill="#9F2241" width="3.851" height="17.359"/>
	<path fill="#9F2241" d="M755.828,76.173l3.274,1.42l-3.202,2.973h-2.896L755.828,76.173z M759.63,90.65v-0.042
		c0-2.976-2.209-5.46-5.305-5.46c-3.097,0-5.248,2.429-5.248,5.411v0.049c0,2.981,2.199,5.456,5.3,5.456
		C757.479,96.063,759.63,93.626,759.63,90.65 M745.045,90.65v-0.042c0-4.944,3.927-8.978,9.332-8.978
		c5.406,0,9.271,3.991,9.271,8.929v0.049c0,4.934-3.922,8.969-9.322,8.969C748.924,99.577,745.045,95.595,745.045,90.65"/>
	<polygon fill="#9F2241" points="767.384,81.926 770.937,81.926 779.137,92.618 779.137,81.926 782.938,81.926 782.938,99.285 
		779.66,99.285 771.182,88.248 771.182,99.285 767.384,99.285 	"/>
	<polygon fill="#9F2241" points="800.66,92.734 793.927,82.224 798.432,82.224 802.608,89.196 806.862,82.224 811.241,82.224 
		804.519,92.666 804.519,99.582 800.66,99.582 	"/>
	<polygon fill="#9F2241" points="821.409,82.224 834.737,82.224 834.737,85.698 825.259,85.698 825.259,89.392 833.613,89.392 
		833.613,92.86 825.259,92.86 825.259,99.582 821.409,99.582 	"/>
	<rect x="838.189" y="82.224" fill="#9F2241" width="3.845" height="17.358"/>
	<polygon fill="#9F2241" points="846.729,82.224 850.282,82.224 858.482,92.906 858.482,82.224 862.285,82.224 862.285,99.582 
		859.01,99.582 850.532,88.552 850.532,99.582 846.729,99.582 	"/>
	<path fill="#9F2241" d="M876.693,92.312l-2.325-5.626l-2.323,5.626H876.693z M872.64,82.101h3.562l7.495,17.481h-4.023
		l-1.608-3.891h-7.394l-1.608,3.891h-3.918L872.64,82.101z"/>
	<polygon fill="#9F2241" points="886.568,82.224 890.125,82.224 898.32,92.906 898.32,82.224 902.123,82.224 902.123,99.582 
		898.843,99.582 890.366,88.552 890.366,99.582 886.568,99.582 	"/>
	<polygon fill="#9F2241" points="905.96,96.685 915.594,85.573 906.266,85.573 906.266,82.22 920.548,82.22 920.548,85.124 
		910.919,96.236 920.548,96.236 920.548,99.577 905.96,99.577 	"/>
	<path fill="#9F2241" d="M934.673,92.312l-2.319-5.626l-2.324,5.626H934.673z M930.622,82.101h3.557l7.504,17.481h-4.022
		l-1.608-3.891h-7.399l-1.603,3.891h-3.922L930.622,82.101z"/>
	<path fill="#9F2241" d="M943.488,97.053l2.276-2.699c1.574,1.285,3.226,2.102,5.223,2.102c1.579,0,2.53-0.622,2.53-1.638v-0.045
		c0-0.969-0.605-1.467-3.529-2.208c-3.518-0.893-5.799-1.86-5.799-5.315v-0.036c0-3.15,2.545-5.239,6.126-5.239
		c2.554,0,4.725,0.796,6.5,2.212l-1.997,2.873c-1.55-1.07-3.082-1.71-4.561-1.71c-1.47,0-2.247,0.665-2.247,1.515v0.053
		c0,1.133,0.753,1.509,3.778,2.271c3.548,0.922,5.555,2.191,5.555,5.214v0.042c0,3.455-2.654,5.389-6.434,5.389
		C948.264,99.834,945.586,98.907,943.488,97.053"/>
	<rect x="502.664" y="51.211" fill="#9F2241" width="1.479" height="49.39"/>
</g>
</svg>
